<svg xmlns="http://www.w3.org/2000/svg" fill="none" viewBox="0 0 17 19" height="19" width="17">
<path stroke-linejoin="round" stroke-linecap="round" stroke-width="1.5" stroke="#6C757D" d="M3.04545 11.5C4.17513 11.5 5.09091 10.6046 5.09091 9.5C5.09091 8.39543 4.17513 7.5 3.04545 7.5C1.91578 7.5 1 8.39543 1 9.5C1 10.6046 1.91578 11.5 3.04545 11.5Z"></path>
<path stroke-linejoin="round" stroke-linecap="round" stroke-width="1.5" stroke="#6C757D" d="M13.9556 5.5C15.0853 5.5 16.0011 4.60457 16.0011 3.5C16.0011 2.39543 15.0853 1.5 13.9556 1.5C12.8259 1.5 11.9102 2.39543 11.9102 3.5C11.9102 4.60457 12.8259 5.5 13.9556 5.5Z"></path>
<path stroke-linejoin="round" stroke-linecap="round" stroke-width="1.5" stroke="#6C757D" d="M13.9556 17.5C15.0853 17.5 16.0011 16.6046 16.0011 15.5C16.0011 14.3954 15.0853 13.5 13.9556 13.5C12.8259 13.5 11.9102 14.3954 11.9102 15.5C11.9102 16.6046 12.8259 17.5 13.9556 17.5Z"></path>
<path stroke-linejoin="round" stroke-linecap="round" stroke-width="1.5" stroke="#6C757D" d="M4.82812 10.4804L12.1722 14.5196M12.1722 4.48041L4.82812 8.51957"></path>
</svg>
