<svg width="97" height="97" viewBox="0 0 97 97" fill="none" xmlns="http://www.w3.org/2000/svg">
<circle cx="48.5" cy="48.5" r="48" fill="white" stroke="#181717"/>
<path fill-rule="evenodd" clip-rule="evenodd" d="M36.8866 52.0228C39.3022 50.9237 41.7418 52.9439 41.1775 55.5133C41.3033 55.5536 41.4326 55.5935 41.5608 55.6367C43.163 56.1755 44.0097 57.9168 43.4294 59.5132C43.3495 59.7329 43.3658 59.8693 43.5047 60.0572C44.4906 61.3914 44.2601 63.213 42.9921 64.2275C41.7368 65.2319 39.9489 65.0554 38.8696 63.8107C38.7382 63.6593 38.6418 63.5888 38.4293 63.6734C37.7466 63.9456 37.0545 63.9375 36.3502 63.7195C36.2148 63.6775 35.9936 63.7629 35.8694 63.8624C34.1292 65.259 31.5607 64.3778 31.0875 62.1873C30.9911 61.741 31.0735 61.2555 31.0735 60.8487C30.6595 60.4983 30.2274 60.219 29.9067 59.843C29.2767 59.1041 29.088 58.2188 29.3099 57.2662C29.3592 57.0546 29.3131 56.954 29.1493 56.8266C27.9719 55.9116 27.6263 54.3792 28.2865 53.0639C28.9407 51.7608 30.3828 51.1506 31.8194 51.5561C31.9413 51.5905 32.13 51.5878 32.2171 51.5157C33.8434 50.1691 35.5252 50.3397 36.8866 52.0228ZM40.0202 54.9078C39.99 54.0214 39.6901 53.4786 39.0592 53.1515C38.3962 52.8076 37.7631 52.9004 37.1728 53.3389C36.5864 53.7745 36.2504 53.6878 35.9876 53.0253C35.725 52.3639 35.2399 51.9695 34.5437 51.8856C33.86 51.8031 33.3108 52.0738 32.907 52.6394C32.5378 53.1566 32.3601 53.1971 31.8036 52.8965C30.8841 52.3997 29.8175 52.7401 29.3592 53.6765C28.9207 54.5725 29.3323 55.6469 30.2738 56.0634C30.8232 56.3066 30.9232 56.5744 30.6649 57.1106C30.1209 58.2401 30.7026 59.431 31.9258 59.692C32.5019 59.8149 32.6793 60.1611 32.4401 60.6958C32.0267 61.62 32.2775 62.5537 33.0686 63.0361C33.8533 63.5146 34.7843 63.3252 35.403 62.5613C35.7519 62.1304 35.9491 62.0949 36.4377 62.3745C37.1067 62.7574 37.7601 62.7401 38.3978 62.2983C38.948 61.9171 39.2442 61.9922 39.5356 62.5854C39.8767 63.2803 40.5403 63.6995 41.2387 63.6351C41.9862 63.5659 42.5166 63.1756 42.7822 62.4646C43.0461 61.7583 42.8318 61.0313 42.2359 60.5004C41.8377 60.1459 41.801 59.9197 42.0786 59.4766C42.4825 58.8317 42.5018 58.1737 42.0931 57.5361C41.6932 56.9123 41.098 56.6558 40.3665 56.7506C40.0683 56.7891 39.8093 56.7535 39.6347 56.479C39.4572 56.2002 39.571 55.959 39.7069 55.6955C39.8606 55.3979 39.9573 55.0703 40.0202 54.9078Z" fill="black"/>
<path fill-rule="evenodd" clip-rule="evenodd" d="M43.6814 75.8609C42.3293 75.8608 40.9772 75.8617 39.625 75.8602C39.1019 75.8597 38.9378 75.7298 38.7762 75.2277C38.4293 74.1509 38.0779 73.0755 37.7273 72.0001C37.6224 71.6782 37.6499 71.3929 37.9541 71.1928C38.3159 70.9549 38.7191 71.1428 38.8821 71.6352C39.1737 72.5165 39.4654 73.3981 39.7336 74.2869C39.8178 74.5657 39.9476 74.6597 40.2379 74.6583C42.702 74.6474 45.1661 74.6524 47.6302 74.6534C47.769 74.6534 47.91 74.6464 48.0463 74.6672C48.3454 74.7128 48.522 74.8957 48.5485 75.2006C48.5767 75.5252 48.4175 75.74 48.1126 75.8269C47.9822 75.8641 47.8378 75.8596 47.6998 75.8599C46.3603 75.862 45.0208 75.8612 43.6814 75.8609Z" fill="black"/>
<path fill-rule="evenodd" clip-rule="evenodd" d="M32.6022 70.3097C32.6017 71.6982 32.5995 73.0867 32.6033 74.4752C32.6043 74.8346 32.4801 75.1006 32.1133 75.1912C31.7846 75.2725 31.4705 75.0674 31.398 74.7333C31.3767 74.6351 31.3744 74.5312 31.3744 74.4298C31.3731 71.6657 31.3721 68.9013 31.3746 66.1372C31.375 65.632 31.6223 65.3389 32.009 65.3616C32.3794 65.3834 32.6008 65.6549 32.6016 66.1059C32.6042 67.5073 32.6026 68.9085 32.6022 70.3097Z" fill="black"/>
<path fill-rule="evenodd" clip-rule="evenodd" d="M59.6082 62.7686C59.2833 62.7738 58.9965 62.506 58.9829 62.1849C58.9687 61.8469 59.2544 61.5375 59.5828 61.5354C59.9034 61.5332 60.197 61.8066 60.212 62.1215C60.2281 62.4559 59.9411 62.7634 59.6082 62.7686Z" fill="black"/>
<path fill-rule="evenodd" clip-rule="evenodd" d="M65.5879 68.2332C65.2442 68.2234 64.9836 67.9326 65.003 67.5804C65.0214 67.246 65.2902 66.9993 65.6263 67.0083C65.9679 67.0174 66.2388 67.314 66.2186 67.6564C66.1993 67.9795 65.9117 68.2425 65.5879 68.2332Z" fill="black"/>
<path fill-rule="evenodd" clip-rule="evenodd" d="M63.5852 65.6184C63.262 65.6284 62.9811 65.3636 62.9656 65.0341C62.949 64.6823 63.2107 64.3965 63.5583 64.3865C63.8865 64.3772 64.1617 64.6359 64.1782 64.9691C64.1954 65.3194 63.9324 65.6074 63.5852 65.6184Z" fill="black"/>
<path fill-rule="evenodd" clip-rule="evenodd" d="M62.6964 67.0091C63.0301 67.0139 63.2872 67.276 63.2906 67.615C63.2941 67.9584 63.0087 68.2424 62.6681 68.2347C62.3461 68.2272 62.0711 67.9473 62.0684 67.6242C62.0654 67.2845 62.3517 67.0042 62.6964 67.0091Z" fill="black"/>
<path fill-rule="evenodd" clip-rule="evenodd" d="M61.2473 65.0036C61.2429 65.3613 60.9692 65.6321 60.6226 65.6214C60.3105 65.6117 60.0313 65.3195 60.0293 65.0001C60.0273 64.6626 60.3222 64.3785 60.6634 64.3895C60.9972 64.4002 61.2514 64.6677 61.2473 65.0036Z" fill="black"/>
<path fill-rule="evenodd" clip-rule="evenodd" d="M56.6778 62.7706C56.3479 62.7736 56.0758 62.5127 56.063 62.1808C56.0496 61.8367 56.3275 61.536 56.6609 61.5339C57.0007 61.5317 57.2809 61.8186 57.2776 62.1651C57.2744 62.4893 56.9986 62.7676 56.6778 62.7706Z" fill="black"/>
<path fill-rule="evenodd" clip-rule="evenodd" d="M57.7405 65.6199C57.4138 65.6302 57.136 65.3723 57.1164 65.0405C57.0956 64.6865 57.3523 64.4018 57.7019 64.3914C58.0475 64.3809 58.3294 64.6544 58.331 65.0014C58.3324 65.3232 58.0589 65.6098 57.7405 65.6199Z" fill="black"/>
<path fill-rule="evenodd" clip-rule="evenodd" d="M59.7571 67.0069C60.0824 67.0037 60.3591 67.269 60.3728 67.5973C60.387 67.9348 60.1053 68.2271 59.7624 68.2305C59.4293 68.2338 59.1652 67.9776 59.1546 67.6409C59.1436 67.2873 59.407 67.0102 59.7571 67.0069Z" fill="black"/>
<path fill-rule="evenodd" clip-rule="evenodd" d="M62.5012 62.7712C62.1831 62.7649 61.9085 62.4794 61.9082 62.1546C61.908 61.8197 62.2115 61.5181 62.5365 61.5301C62.8683 61.5424 63.1409 61.8489 63.1252 62.1919C63.11 62.5209 62.8334 62.7776 62.5012 62.7712Z" fill="black"/>
<path fill-rule="evenodd" clip-rule="evenodd" d="M36.7503 55.5266C36.7397 55.1913 37.0327 54.8839 37.3629 54.8835C37.6734 54.8832 37.9638 55.1691 37.9777 55.4886C37.9919 55.817 37.6932 56.1287 37.3632 56.1296C37.0461 56.1306 36.7604 55.8496 36.7503 55.5266Z" fill="black"/>
<path fill-rule="evenodd" clip-rule="evenodd" d="M35.4682 55.515C35.4657 55.8392 35.1926 56.117 34.8679 56.1255C34.5385 56.1341 34.2335 55.8311 34.2403 55.502C34.2475 55.1598 34.5374 54.8854 34.8818 54.8948C35.2019 54.9036 35.4705 55.1876 35.4682 55.515Z" fill="black"/>
<path fill-rule="evenodd" clip-rule="evenodd" d="M33.2334 58.5745C32.9227 58.5676 32.6385 58.2733 32.6367 57.9569C32.635 57.6169 32.9299 57.3268 33.2644 57.3395C33.5977 57.3522 33.8571 57.6191 33.8585 57.9505C33.8599 58.2933 33.5707 58.5818 33.2334 58.5745Z" fill="black"/>
<path fill-rule="evenodd" clip-rule="evenodd" d="M35.774 57.3347C36.113 57.3446 36.3834 57.6459 36.3637 57.9922C36.3448 58.3253 36.061 58.5901 35.7397 58.5746C35.4026 58.5583 35.1206 58.2487 35.1417 57.9181C35.1623 57.5979 35.4575 57.3256 35.774 57.3347Z" fill="black"/>
<path fill-rule="evenodd" clip-rule="evenodd" d="M40.0107 59.5818C40.3561 59.5829 40.6391 59.8706 40.6286 60.21C40.6188 60.5215 40.3253 60.8102 40.0147 60.8139C39.6885 60.8178 39.3876 60.5079 39.3967 60.1777C39.4056 59.8552 39.6883 59.5808 40.0107 59.5818Z" fill="black"/>
<path fill-rule="evenodd" clip-rule="evenodd" d="M32.9562 55.5081C32.9547 55.8361 32.6833 56.1209 32.3631 56.1304C32.0392 56.1398 31.7266 55.8343 31.7266 55.5083C31.7264 55.1852 32.0448 54.8741 32.3634 54.8861C32.6806 54.898 32.9577 55.1887 32.9562 55.5081Z" fill="black"/>
<path fill-rule="evenodd" clip-rule="evenodd" d="M35.0143 60.8109C34.6714 60.8165 34.3805 60.5351 34.3789 60.196C34.3774 59.8699 34.6467 59.5947 34.975 59.5866C35.3288 59.578 35.6011 59.8431 35.6006 60.1957C35.6001 60.5342 35.3416 60.8054 35.0143 60.8109Z" fill="black"/>
<path fill-rule="evenodd" clip-rule="evenodd" d="M38.1061 60.192C38.1057 60.5285 37.8453 60.8027 37.5175 60.8123C37.1834 60.8221 36.8642 60.5264 36.8902 60.1919C36.91 59.9379 36.9683 59.6884 37.3267 59.7004C37.9455 59.7212 38.1068 59.8127 38.1061 60.192Z" fill="black"/>
<path fill-rule="evenodd" clip-rule="evenodd" d="M37.6934 57.8011C37.7699 57.5127 38.0178 57.3033 38.3197 57.3365C38.6183 57.3693 38.8612 57.6237 38.876 57.9191C38.8911 58.2197 38.6775 58.5172 38.3845 58.5444C38.2857 58.5537 38.1492 58.4663 38.0769 58.3822C37.9475 58.2314 37.8534 58.0494 37.6934 57.8011Z" fill="black"/>
<path d="M74.9306 62.323C74.0009 56.5788 69.8186 52.1406 64.188 50.9036C63.978 50.8574 63.7488 50.7142 63.6114 50.5472C61.7032 48.2253 59.2699 46.993 56.274 46.8991C54.7832 46.8525 53.2923 46.8043 51.802 46.7442C50.7664 46.7024 50.0404 46.0477 49.8858 45.0218C49.7441 44.0822 49.7657 43.1431 49.937 42.207C50.0322 41.6874 50.2263 41.2286 50.5368 40.7884C52.0658 38.6209 53.1575 36.2629 53.4988 33.5941C53.512 33.4908 53.5601 33.3547 53.6371 33.304C53.9093 33.1251 53.9515 32.8695 53.9608 32.5754C53.9704 32.2709 54.0075 31.9666 54.0453 31.6638C54.2568 29.9701 54.4877 28.2797 54.326 26.5631C54.1032 24.1951 52.9859 22.4373 50.8719 21.3533C49.2823 20.5383 47.5591 20.266 45.8065 20.2202C43.5197 20.1607 41.231 20.1733 38.943 20.1627C37.9191 20.1579 36.8951 20.1672 35.8711 20.1794C35.306 20.1862 35.1571 20.3122 35.0351 20.8581C34.9463 21.2553 34.8627 21.6539 34.787 22.0539C34.2676 24.8015 33.9134 27.5651 34.0759 30.3704C34.1582 31.7924 34.4113 33.1723 35.1469 34.428C35.3623 34.7957 35.4952 35.2146 35.6489 35.6165C35.9122 36.3049 36.1415 37.0072 36.4247 37.6869C36.5685 38.0321 36.7474 38.3627 36.9303 38.7054V38.7054L36.9306 38.7057C36.9989 38.834 37.0679 38.9637 37.1358 39.0968C37.1358 39.0968 37.4356 39.5697 37.6972 39.9642C37.7225 40.0097 37.7475 40.0526 37.776 40.092C37.8087 40.1374 37.8419 40.1824 37.8749 40.2276C37.9482 40.334 38.0083 40.4172 38.044 40.4587C38.0879 40.5182 38.1318 40.5777 38.1756 40.6371C38.1894 40.6559 38.2017 40.6725 38.2132 40.688C38.3684 40.8983 38.5227 41.1093 38.6716 41.324C38.769 41.4645 38.87 41.6333 38.8839 41.7966C38.9679 42.7847 39.0862 43.7754 39.0797 44.7645C39.0719 45.9612 38.2942 46.6979 37.1101 46.7427C35.4933 46.8036 33.876 46.8579 32.2587 46.8985C30.7212 46.9371 29.2927 47.32 27.9553 48.0298L27.9551 48.0292C27.9551 48.0292 27.8678 48.0739 27.7208 48.1586C27.5947 48.2298 27.469 48.3028 27.3443 48.3799C27.244 48.442 27.1499 48.5048 27.0649 48.5713C26.4255 49.0063 25.5736 49.6845 24.9697 50.5383C24.9687 50.5397 24.9678 50.541 24.9668 50.5424C23.6465 52.26 22.9283 54.2117 22.9226 56.4318C22.907 62.3956 22.9175 68.3594 22.9177 74.3233C22.9177 74.4252 22.9117 74.528 22.9225 74.6289C22.9604 74.9859 23.2172 75.2175 23.5551 75.2069C23.8788 75.1969 24.1048 74.9709 24.1338 74.619C24.1443 74.4924 24.1388 74.3644 24.1388 74.237C24.1389 68.4897 24.138 62.7426 24.1408 56.9954C24.141 56.5754 24.155 56.1544 24.1849 55.7356C24.4579 51.9174 27.6506 48.5702 31.4306 48.2096C32.85 48.0742 34.2833 48.0855 35.7101 48.0292C36.3288 48.0048 36.9527 48.0203 37.5654 47.9448C39.196 47.7441 40.2957 46.4177 40.3347 44.6498C40.3454 44.1611 40.3363 43.672 40.3363 43.1798C40.9075 43.6026 41.4521 44.0549 42.0428 44.4341C43.9634 45.6671 45.3323 45.6223 47.1864 44.2883C47.6448 43.9585 48.0739 43.5874 48.515 43.2365C48.5295 43.2463 48.5472 43.2525 48.5473 43.2591C48.5549 43.5512 48.5574 43.8436 48.5678 44.1356C48.6185 45.5645 48.8977 46.8725 50.3189 47.5532L50.3189 47.5537C50.3189 47.5537 50.6066 47.7628 51.513 47.9093C51.5241 47.9185 51.5319 47.9239 51.5315 47.9236C51.5349 47.9204 51.5379 47.9171 51.5411 47.9139C52.0499 47.9942 52.7486 48.0546 53.6955 48.0487C54.5282 48.0774 55.3482 48.1081 56.1677 48.1266C58.1886 48.1721 59.9769 48.8355 61.5222 50.152C61.6753 50.2824 61.8094 50.4353 61.9981 50.6234C52.5336 50.2809 46.2267 58.9869 47.9172 67.006L47.9164 67.0065C47.9491 67.2173 48.0123 67.4699 48.0957 67.7459C48.2029 68.1361 48.3301 68.5239 48.4769 68.9082L48.4765 68.9086C48.4765 68.9086 48.733 69.7436 48.7878 69.867C48.7912 69.8771 48.7947 69.8863 48.7987 69.895C49.0419 70.424 49.3046 70.9273 49.5849 71.4072C49.5884 71.4147 49.5904 71.4188 49.5904 71.4188L49.591 71.4178C51.7497 75.1065 55.0101 77.3423 59.396 78.0946L59.3961 78.0952C59.3961 78.0952 59.4007 78.0958 59.4072 78.0967C59.4237 78.0995 59.4397 78.1027 59.4562 78.1055C59.5183 78.116 59.5765 78.1225 59.6323 78.1235C60.1217 78.179 61.251 78.2905 61.8277 78.2112L61.8277 78.211C62.3995 78.1918 62.9717 78.1666 63.53 78.0672C67.3393 77.3892 70.3068 75.5463 72.4392 72.5685C72.5536 72.4464 72.9151 71.9909 72.9151 71.9909L72.8572 71.9548C72.8739 71.9291 72.8899 71.9028 72.9063 71.877C72.9093 71.8729 72.9119 71.8692 72.915 71.8651C73.1335 71.5657 73.3389 71.2045 73.5284 70.8158C73.586 70.7089 73.6432 70.6014 73.6991 70.4923C73.7642 70.365 73.8137 70.2295 73.8807 70.0744C73.8737 70.0737 73.8673 70.0731 73.8605 70.0724C73.8816 70.0211 73.9025 69.9698 73.923 69.9183C73.9405 69.9205 73.958 69.9229 73.9754 69.9252C73.9904 69.833 74.0109 69.7409 74.0282 69.6487C74.3297 68.8571 74.5608 68.0864 74.7007 67.5836C74.7046 67.585 74.7085 67.5866 74.7123 67.5879C74.764 67.4105 74.8105 67.2166 74.8518 67.0105C74.8524 67.008 74.8529 67.0063 74.8529 67.0063V67.0053C75.1223 65.6609 75.1668 63.7816 74.9306 62.323ZM36.2245 33.0628C36.1839 33.1755 36.116 33.2781 36.0326 33.4399C35.6693 32.7597 35.521 32.0825 35.4169 31.3944C35.1846 29.8596 35.1973 28.3142 35.3704 26.7814C35.5601 25.1005 35.8552 23.4316 36.0962 21.7562C36.131 21.5149 36.2136 21.4116 36.4787 21.413C39.5503 21.4294 42.6222 21.4107 45.6935 21.4513C47.0739 21.4696 48.4397 21.6761 49.7379 22.1956C51.8225 23.0297 52.9525 24.5677 53.1177 26.8318C53.2384 28.4849 53.0043 30.1093 52.7814 31.8193C52.6222 31.687 52.4704 31.6121 52.3951 31.4895C52.0908 30.9937 51.7947 30.4914 51.5249 29.9759C51.2718 29.4924 51.0464 28.9933 50.8254 28.4935C50.4315 27.6029 49.7106 27.1948 48.7985 27.0222C47.046 26.6904 45.2776 26.6404 43.5105 26.7753C42.3181 26.8665 41.1323 27.0683 39.9501 27.2614C39.3339 27.362 38.8532 27.7172 38.4439 28.211C37.7006 29.1079 37.1927 30.1126 36.8659 31.2282C36.6842 31.8493 36.4441 32.4532 36.2245 33.0628ZM46.5226 43.2436C46.2995 43.409 46.0594 43.5525 45.8208 43.6953C45.0033 44.1847 44.1794 44.1957 43.333 43.752C41.6549 42.8722 40.3788 41.5439 39.262 40.0456C38.8636 39.5112 38.5231 38.933 38.1628 38.3697C38.1286 38.3122 38.0941 38.2529 38.0601 38.1933C37.6408 37.1898 37.2131 36.1897 36.8128 35.1785C36.7527 35.0265 36.7828 34.8043 36.8442 34.6427C37.2454 33.587 37.7017 32.5514 38.0703 31.4846C38.3647 30.6329 38.7313 29.8412 39.2878 29.1291C39.6055 28.7225 39.992 28.4963 40.4797 28.3897C42.3208 27.9873 44.1862 27.9044 46.0591 27.9802C46.8396 28.0118 47.6161 28.1353 48.3956 28.2039C48.5394 28.2165 48.6893 28.1696 48.8354 28.1441C49.1173 28.0948 49.3058 28.1739 49.4392 28.459C49.9393 29.5281 50.4196 30.6105 50.9943 31.6386C51.2577 32.1098 51.7054 32.4851 52.1056 32.8653C52.2543 33.0066 52.3126 33.1103 52.2915 33.3088C52.1016 35.0992 51.4898 36.7489 50.6344 38.3112C49.5864 40.2251 48.2884 41.9351 46.5226 43.2436ZM73.5798 67.0951C73.5732 67.1288 73.565 67.1704 73.5591 67.2114C73.4518 67.6189 73.3214 68.022 73.1809 68.4071C73.173 68.4061 73.165 68.4052 73.1571 68.4042C73.1511 68.4426 73.1453 68.4812 73.1393 68.5197C72.5737 70.0345 71.8682 71.2461 71.83 71.3113C68.9038 75.8408 63.2577 78.0607 58.0679 76.5468C54.0035 75.3612 51.2187 72.7314 49.6793 68.7665C49.5045 68.2742 49.3615 67.7834 49.2522 67.3696C49.1615 66.9495 49.0674 66.5178 49.0236 66.0808C48.525 61.114 50.2296 57.0901 54.2427 54.151C59.6525 50.1891 67.5237 51.5107 71.425 56.9822C73.6013 60.0346 74.3007 63.4122 73.5798 67.0951Z" fill="black"/>
<path fill-rule="evenodd" clip-rule="evenodd" d="M69.9462 71.0303C70.2527 69.9364 69.7047 65.7879 69.7047 65.7879L69.7046 65.7878C69.7593 64.6501 69.2361 63.5157 68.2736 62.8663C67.8434 62.5761 67.334 62.4054 66.8296 62.1652C67.1451 60.79 66.8461 59.5308 65.6832 58.5863C64.524 57.6448 63.2393 57.6157 61.9264 58.2285C60.5245 56.0811 57.8725 56.1621 56.5508 57.6214C56.4842 57.695 56.3155 57.7099 56.2003 57.6971C55.727 57.6446 55.2504 57.4886 54.7852 57.5201C53.3145 57.6202 52.1696 58.5902 51.7845 59.9744C51.3954 61.3726 51.8913 62.7891 53.1033 63.6777C53.2805 63.8077 53.28 63.9159 53.2651 64.1146C53.2237 64.666 53.1446 65.239 53.245 65.7719C53.4662 66.945 54.2293 67.7167 55.2658 68.1726C55.2658 68.7646 55.1797 69.3128 55.2802 69.8234C55.7957 72.4388 58.8403 73.4531 60.8393 71.7034C60.9324 71.6219 61.0989 71.5154 61.1807 71.5483C62.165 71.9436 63.1287 71.8935 64.0817 71.4386C64.1676 71.5464 64.2346 71.6376 64.3084 71.7225C65.2219 72.7724 66.3657 73.1933 67.7129 72.8678C68.7146 72.6258 69.4329 72.0582 69.8693 71.2124L69.8694 71.2124C69.8902 71.182 69.9088 71.1429 69.9253 71.0967C69.9354 71.0755 69.9461 71.0549 69.9558 71.0333C69.9526 71.0322 69.9494 71.0313 69.9462 71.0303ZM67.7181 71.5799C66.6596 72.006 65.4893 71.5309 64.9719 70.4743C64.8905 70.3082 64.7993 70.1199 64.6587 70.0164C64.4092 69.8326 64.138 69.885 63.889 70.0744C63.0598 70.7049 62.2009 70.7351 61.3118 70.2002C60.8984 69.9516 60.6366 70.0136 60.3354 70.408C59.5994 71.3715 58.415 71.616 57.4429 71.005C56.4884 70.4052 56.18 69.2371 56.6914 68.1585C56.9466 67.6205 56.7805 67.2749 56.2049 67.1461C54.6178 66.7909 53.9382 65.3632 54.6604 63.9016C54.8897 63.4374 54.7695 63.1389 54.2607 62.9092C52.7071 62.2079 52.398 60.2808 53.6701 59.2254C54.3628 58.6505 55.3122 58.5766 56.1175 59.0345C56.6504 59.3374 56.8652 59.2868 57.2176 58.7747C57.7974 57.9324 58.7417 57.6178 59.7221 57.9226C59.8807 57.9719 60.0634 57.9756 60.2303 57.9577C60.584 57.9198 60.7775 58.1003 60.8394 58.4608C60.9009 58.8185 60.9947 59.1805 61.1405 59.5109C61.3098 59.8948 61.7637 59.9322 62.1364 59.6209C62.769 59.0925 63.4707 58.918 64.258 59.1853C65.5327 59.6182 66.0929 61.0841 65.4424 62.2713C65.3814 62.3824 65.3032 62.4845 65.2472 62.598C65.0143 63.0692 65.3017 63.5247 65.8223 63.5109C65.9609 63.5071 66.099 63.4805 66.2377 63.4774C67.0955 63.4593 67.7631 63.8143 68.1879 64.5644C68.4158 64.9671 68.5087 65.3732 68.4768 65.7788C68.4838 65.7788 68.4899 65.7804 68.4966 65.781L68.4763 65.7877C69.4505 67.3684 68.7262 70.7188 68.7208 70.7438C68.4902 71.11 68.1489 71.4067 67.7181 71.5799Z" fill="black"/>
</svg>
