<svg width="97" height="97" viewBox="0 0 97 97" fill="none" xmlns="http://www.w3.org/2000/svg">
<circle cx="48.5" cy="48.5" r="48" fill="white" stroke="#181717"/>
<path fill-rule="evenodd" clip-rule="evenodd" d="M47.9268 17.9686C49.6547 17.9686 51.3831 17.9414 53.1104 17.9732C61.4711 18.1272 68.8933 24.4221 70.3799 32.6499C70.6005 33.8707 70.6705 35.1253 70.7232 36.368C70.7804 37.7215 70.7292 39.0794 70.7431 40.4353C70.7454 40.6521 70.8008 40.8891 70.9005 41.081C72.3162 43.804 73.7535 46.5157 75.1652 49.2409C76.2346 51.3047 75.603 53.7804 73.7031 55.0756C72.9813 55.5677 72.1815 55.825 71.307 55.8466C69.8341 55.8829 68.9295 56.7658 68.8263 58.2362C68.6358 60.9526 68.4429 63.6689 68.2302 66.3836C68.0419 68.7861 65.8905 70.712 63.3904 70.7323C61.9506 70.744 60.5106 70.7329 59.0706 70.7352C57.891 70.7372 57.1199 71.4552 56.9941 72.6334C56.8566 73.921 56.7061 75.2073 56.5479 76.4925C56.3911 77.7672 55.4034 78.597 54.0547 78.5972C46.3389 78.5984 38.6231 78.5979 30.9074 78.5977C30.0194 78.5977 29.1312 78.6118 28.2435 78.5929C26.9948 78.5663 25.9734 77.5389 25.9678 76.3106C25.9668 76.102 26.0135 75.8776 26.0976 75.6867C27.5718 72.3421 28.6061 68.8731 29.0265 65.2361C29.2195 63.5658 29.3399 61.8905 28.9239 60.227C28.5842 58.8688 27.9319 57.662 27.174 56.5023C26.3476 55.2377 25.48 53.9975 24.7093 52.6999C23.3622 50.4316 22.7164 47.9526 22.7707 45.3146C22.8214 42.8568 22.8564 40.3948 23.0338 37.9446C23.2864 34.4534 24.0463 31.0663 25.5963 27.8988C27.8771 23.238 31.6171 20.356 36.5726 18.9816C39.2505 18.2389 41.9898 17.9766 44.7589 17.9633C45.8148 17.9582 46.8708 17.9625 47.9268 17.9625C47.9268 17.9646 47.9268 17.9666 47.9268 17.9686ZM28.432 76.2069C28.538 76.2166 28.585 76.2246 28.632 76.2247C37.0557 76.2382 45.4794 76.25 53.903 76.2697C54.1625 76.2703 54.2293 76.1599 54.2537 75.9382C54.3504 75.0562 54.4362 74.1722 54.5646 73.2946C54.6736 72.5508 54.8097 71.8085 54.9863 71.0784C55.0618 70.7667 55.271 70.4874 55.4264 70.1797C55.332 70.1448 55.255 70.1145 55.1767 70.0876C53.3797 69.4711 51.7288 68.585 50.2493 67.3913C49.6959 66.9449 49.6203 66.2083 50.0446 65.6995C50.4672 65.1927 51.149 65.1514 51.7213 65.569C52.2437 65.9501 52.7674 66.3356 53.3234 66.6636C54.9862 67.6444 56.7537 68.3358 58.7126 68.3733C60.2961 68.4037 61.8806 68.3943 63.4644 68.3783C64.6308 68.3666 65.6797 67.5202 65.8501 66.3658C66.0106 65.2797 66.0451 64.1751 66.1391 63.0304C65.9761 63.0304 65.8477 63.0304 65.7195 63.0304C64.6035 63.0304 63.4875 63.0336 62.3715 63.0292C61.8171 63.0271 61.3955 62.743 61.2183 62.2707C60.9203 61.4763 61.4879 60.6943 62.3911 60.683C63.4469 60.6698 64.503 60.6799 65.5591 60.6798C65.7968 60.6798 66.0345 60.6798 66.3047 60.6798C66.3508 60.0628 66.4128 59.4798 66.4344 58.8953C66.4817 57.6071 66.6428 56.3574 67.484 55.303C67.4944 55.2898 67.4822 55.2585 67.4835 55.2793C66.7866 54.9369 66.0959 54.6305 65.438 54.2648C64.8453 53.9352 64.6806 53.2428 65.0004 52.6787C65.3167 52.1207 65.9991 51.933 66.5941 52.242C66.7325 52.3138 66.8656 52.3955 67.005 52.4651C68.2851 53.1032 69.6134 53.5672 71.0688 53.5192C72.9169 53.4583 73.8688 51.8053 73.0077 50.1633C71.5878 47.4558 70.1676 44.7484 68.7417 42.044C68.501 41.5874 68.3798 41.1126 68.3825 40.596C68.3898 39.12 68.3794 37.644 68.3868 36.168C68.3956 34.4489 68.1356 32.7709 67.5742 31.1493C67.2824 30.3064 66.9061 29.493 66.5375 28.5917C66.372 28.7889 66.2816 28.8963 66.1914 29.0041C64.6139 30.891 63.041 32.782 61.4522 34.6594C61.2742 34.8699 61.0284 35.0606 60.7747 35.1621C60.1945 35.3942 59.4132 35.0123 59.2477 34.1211C58.9978 32.7754 57.9234 31.8577 56.5783 31.7408C55.3784 31.6365 54.1659 32.387 53.6798 33.5349C53.1672 34.7455 53.4977 36.0767 54.5393 36.9441C54.91 37.2529 55.1111 37.6264 55.0247 38.1088C54.9333 38.6191 54.6082 38.9237 54.1129 39.0681C53.5613 39.229 53.0143 39.407 52.4652 39.5769C51.667 39.8238 50.8685 40.0701 50.0551 40.3213C50.1024 40.4995 50.1564 40.6467 50.1789 40.7984C50.2717 41.425 50.3964 42.0507 50.4296 42.681C50.4596 43.2486 50.0135 43.7025 49.4508 43.7985C48.9204 43.8889 48.3629 43.5807 48.1894 43.0642C48.1146 42.8415 48.1345 42.5887 48.0779 42.3577C47.9389 41.7918 47.8303 41.2108 47.6152 40.6734C47.412 40.1651 46.9537 39.9286 46.3959 39.9467C46.0605 39.9577 45.7235 39.9748 45.3913 40.0199C44.4009 40.1543 43.6684 40.6444 43.4142 41.6475C42.9866 43.3339 43.0981 44.9565 44.1318 46.4311C44.4484 46.8829 44.7814 47.3234 45.0903 47.7803C45.5919 48.5223 45.8838 49.3281 45.8658 50.2433C45.8581 50.6345 45.9269 51.0313 45.9994 51.4184C46.0555 51.7181 46.2648 51.8781 46.5846 51.9081C47.2542 51.971 47.6865 51.7731 47.9323 51.1427C48.1125 50.6804 48.2045 50.1782 48.2896 49.6858C48.4065 49.0099 48.9308 48.5733 49.6082 48.6393C50.2056 48.6975 50.7172 49.2588 50.618 49.8661C50.4974 50.6062 50.3628 51.3639 50.0865 52.0548C49.4702 53.5954 48.2208 54.3307 46.5673 54.2503C45.0702 54.1776 44.0854 53.4043 43.7365 51.9476C43.601 51.3821 43.5947 50.7856 43.5258 50.2038C43.5034 50.0145 43.5229 49.794 43.4313 49.6438C42.9686 48.8853 42.4756 48.1452 41.9693 47.3617C40.7923 49.0205 39.6675 50.6045 38.544 52.1894C37.6771 53.4123 36.5649 54.3321 35.1858 54.9279C34.2509 55.3317 33.3195 55.7439 32.3875 56.1547C31.6794 56.4669 30.9728 56.7828 30.255 57.1016C30.5125 57.7548 30.7781 58.3598 31.3063 58.7917C31.7975 59.1932 32.285 59.607 32.8159 59.9509C34.627 61.1237 36.596 61.9695 38.6305 62.6692C39.3801 62.927 39.7344 63.5205 39.5204 64.1816C39.3041 64.85 38.656 65.1519 37.9177 64.8986C35.7931 64.17 33.735 63.2934 31.8183 62.1086C31.7337 62.0562 31.6423 62.0149 31.5197 61.9504C31.5784 64.4543 31.2583 66.8625 30.715 69.244C30.1731 71.6199 29.4115 73.9258 28.432 76.2069ZM29.0427 55.0813C30.9622 54.2259 32.8615 53.3996 34.7415 52.5316C35.4697 52.1954 36.0498 51.6413 36.5171 50.9872C37.9533 48.9766 39.3837 46.9618 40.8074 44.9423C40.8874 44.8288 40.9169 44.6596 40.9201 44.5152C40.9388 43.6663 40.8718 42.809 40.9677 41.9697C41.1254 40.5907 41.6697 39.38 42.8572 38.5512C43.7422 37.9336 44.7554 37.7134 45.8079 37.6319C46.7829 37.5564 47.727 37.6276 48.5614 38.2251C48.6276 38.2725 48.7647 38.2536 48.8575 38.2264C49.6278 38.0007 50.3959 37.7669 51.1639 37.5324C51.3754 37.4679 51.5836 37.3923 51.7981 37.3203C50.3637 34.6441 51.3186 31.8244 53.2823 30.4089C54.3251 29.6572 55.492 29.3182 56.7714 29.4185C58.4915 29.5535 59.8147 30.3979 60.8251 31.8097C62.2892 30.0427 63.7255 28.3091 65.1721 26.563C62.8501 23.5622 59.8811 21.6295 56.2006 20.7091C56.1769 21.1069 56.1591 21.4757 56.1324 21.8439C55.973 24.0444 54.9776 25.1326 52.8143 25.3957C51.1928 25.5929 49.5811 25.4281 47.9834 25.1237C46.9175 24.9207 45.8856 24.6141 44.9619 24.0224C44.1826 23.5232 43.5834 22.8661 43.5022 21.91C43.4589 21.3995 43.5828 20.8748 43.6333 20.3353C43.6001 20.3353 43.506 20.3325 43.4121 20.3357C41.2221 20.4096 39.0621 20.6898 36.9565 21.3129C33.7868 22.251 31.0978 23.9074 29.1017 26.5969C28.9339 26.8229 28.9172 26.9685 29.0843 27.2153C31.3683 30.5909 29.8704 35.2059 26.0467 36.5389C25.6182 36.6882 25.5004 36.8986 25.457 37.3128C25.1688 40.0618 25.0888 42.8185 25.1058 45.5794C25.1146 47.0192 25.3678 48.4147 25.8828 49.764C26.6232 51.7043 27.8827 53.3315 29.0427 55.0813ZM53.8833 20.3278C51.2526 20.3278 48.7309 20.3278 46.21 20.3278C46.1336 20.5792 46.0778 20.8248 45.9853 21.0558C45.7349 21.6808 45.7722 21.8099 46.3566 22.1419C46.4811 22.2126 46.6082 22.2832 46.742 22.3326C48.7095 23.0598 50.7448 23.2483 52.8211 23.07C53.2975 23.0291 53.6453 22.7578 53.7135 22.2726C53.801 21.6505 53.8259 21.0195 53.8833 20.3278ZM26.0123 33.963C27.6994 32.9406 28.2237 30.6885 27.5227 29.3019C26.8279 30.7923 26.3635 32.3284 26.0123 33.963Z" fill="black"/>
<path fill-rule="evenodd" clip-rule="evenodd" d="M66.6803 37.6848C66.659 38.1279 66.41 38.5035 65.9277 38.6872C64.8546 39.096 63.7774 39.4952 62.6946 39.8775C62.0786 40.095 61.4461 39.7873 61.2225 39.2009C60.9908 38.5933 61.2629 37.9363 61.8866 37.6945C62.9572 37.2793 64.0328 36.8759 65.1163 36.4965C65.9156 36.2167 66.6924 36.7859 66.6803 37.6848Z" fill="black"/>
<path fill-rule="evenodd" clip-rule="evenodd" d="M28.1035 43.7844C28.2082 43.174 28.2769 42.3668 28.4906 41.6C29.2205 38.9812 31.4518 37.796 34.0585 38.5928C36.7484 39.4151 38.3616 42.1582 37.7591 44.8852C37.1541 47.6235 34.56 49.4331 31.7721 49.0617C29.8923 48.8112 28.6064 47.5016 28.2796 45.4798C28.1996 44.984 28.1739 44.4795 28.1035 43.7844ZM30.4185 43.9221C30.5308 44.5444 30.5908 45.118 30.7448 45.6651C30.9078 46.2443 31.3173 46.6122 31.9325 46.7354C33.6076 47.0707 35.2552 45.8734 35.5174 44.1202C35.7608 42.4929 34.4922 40.8834 32.8403 40.7237C31.839 40.6269 31.1519 41.007 30.8321 41.9648C30.6192 42.6029 30.5474 43.2881 30.4185 43.9221Z" fill="black"/>
<path fill-rule="evenodd" clip-rule="evenodd" d="M38.2088 25.9366C38.7593 25.8646 39.2955 26.0874 39.645 26.5866C40.4152 27.6864 41.4565 28.2681 42.7456 28.617C44.5732 29.1119 45.227 31.4166 44.0072 32.8713C43.2883 33.7288 42.4409 34.4655 41.438 34.9831C39.6831 35.8888 38.0667 35.448 36.5521 34.3868C36.0139 34.0098 35.5232 33.5623 35.0264 33.1291C32.8412 31.2241 33.1169 28.181 35.6073 26.683C36.3825 26.2166 37.2247 25.9689 38.2088 25.9366ZM39.6208 33.1427C39.8038 33.0963 39.9998 33.0775 40.1678 32.9989C40.9518 32.6323 41.572 32.0483 42.1597 31.4317C42.3769 31.2039 42.2796 30.9138 41.9819 30.8076C41.8585 30.7637 41.7281 30.7388 41.6009 30.7056C40.3806 30.3861 39.3035 29.8343 38.4832 28.8392C37.9618 28.2066 37.8425 28.1917 37.0828 28.5499C36.9215 28.6259 36.764 28.7173 36.6208 28.8232C35.6879 29.5134 35.6413 30.5546 36.5159 31.3191C36.9936 31.7366 37.4837 32.1405 37.9797 32.5359C38.454 32.914 39.0096 33.0833 39.6208 33.1427Z" fill="black"/>
</svg>
