<svg width="97" height="97" viewBox="0 0 97 97" fill="none" xmlns="http://www.w3.org/2000/svg">
<circle cx="48.5" cy="48.5" r="48" fill="white" stroke="#181717"/>
<g clip-path="url(#clip0_1463_2895)">
<path fill-rule="evenodd" clip-rule="evenodd" d="M47.7114 16.2291C47.8708 16.5793 48.0953 16.9146 48.1802 17.2822C50.3769 26.7908 55.6995 33.6648 64.9277 37.2999C66.1379 37.7767 67.2819 38.4375 68.4099 39.0937C68.6654 39.2423 68.7255 39.7272 68.8758 40.0573C68.5141 40.0819 68.0332 40.27 67.8085 40.1062C64.6274 37.7873 61.2289 38.03 57.7303 39.1433C56.9124 39.4036 56.0849 39.6668 55.2418 39.8026C54.7124 39.8878 54.1449 39.7383 53.5946 39.6941C54.0155 39.3461 54.3852 38.8244 54.8668 38.6816C56.5506 38.1829 58.2736 37.8161 59.981 37.3969C60.2986 37.3189 60.6138 37.2307 61.1309 37.0941C57.6592 35.1014 54.8194 32.5746 52.4578 29.5222C50.081 26.4505 48.3321 23.0541 47.228 18.9473C43.5141 26.5047 38.8111 32.8969 32.0367 37.6066C36.0082 36.4437 39.578 38.1266 43.2392 38.9973C43.5386 39.0685 43.7458 39.5285 43.9954 39.8077C43.6113 39.9227 43.192 40.1995 42.8485 40.125C41.2115 39.7704 39.5751 39.3854 37.9761 38.8898C35.1922 38.0269 32.6659 38.5191 30.227 40.0203C29.7329 40.3245 29.0141 40.2637 28.3991 40.3711C28.3225 40.2069 28.2466 40.0425 28.1705 39.8782C26.9177 41.1085 25.6765 42.3506 24.4081 43.5644C23.7355 44.2079 23.5721 44.9675 23.8569 45.8021C24.2909 47.0744 24.5698 48.4741 25.3036 49.555C27.0462 52.1207 27.801 55.0385 28.7469 57.9043C30.4058 62.9301 32.0131 68.0382 35.6341 72.0489C39.1248 75.9154 43.4949 78.5872 48.5611 79.9479C49.4572 80.1885 50.5586 80.0689 51.4674 79.7933C57.8494 77.8578 63.0126 74.29 66.4031 68.4967C65.2804 67.0105 64.0924 65.7268 63.2608 64.2432C62.6227 63.1059 62.146 61.7239 62.1138 60.4377C62.0644 58.4606 63.1535 56.9184 65.0106 56.0885C66.8469 55.2675 68.6078 55.5093 70.2372 56.6884C70.4249 56.8243 70.6034 56.9727 71.0398 57.3124C71.4938 53.2864 73.7878 50.2171 75.2306 46.7828C75.4038 46.3701 75.4313 45.8879 75.6446 45.5035C75.7691 45.2789 76.1282 45.1845 76.3818 45.0315C76.5161 45.2904 76.8138 45.5949 76.7566 45.8005C76.4839 46.7815 76.1812 47.7654 75.766 48.6934C74.7395 50.989 73.0939 53.0091 72.7134 55.5924C72.685 55.7838 72.6328 55.972 72.5802 56.216C73.3552 56.0226 74.0402 55.7565 74.7439 55.692C78.3914 55.3568 81.1563 58.7165 80.0173 62.2109C79.6072 63.4693 78.8883 64.6766 78.0945 65.747C77.172 66.9909 76.0643 68.1132 74.9414 69.1885C73.7908 70.29 72.5249 71.2707 71.2214 72.3796C69.9109 71.325 68.674 70.3295 67.3538 69.2673C66.8367 70.088 66.4118 70.9759 65.7972 71.7033C61.9226 76.2885 57.2427 79.6533 51.3195 81.1019C49.3863 81.5749 47.5744 81.1446 45.8029 80.4333C37.4207 77.0674 31.7703 71.1377 29.0114 62.4989C28.5137 60.9407 27.9513 59.4031 27.4497 57.8461C26.5979 55.2023 25.8383 52.5385 24.2285 50.1945C23.5477 49.2034 23.1961 47.986 22.715 46.915C21.9418 48.6968 22.1874 51.1154 23.3916 53.8551C23.5822 54.2885 23.5629 54.8142 23.6406 55.2973C23.4753 55.3637 23.3101 55.4304 23.1448 55.4971C22.8544 55.112 22.4897 54.7629 22.285 54.3366C19.8379 49.2371 20.886 44.5349 25.5659 40.6315C27.8567 38.721 30.4549 37.1847 32.8398 35.3807C39.0102 30.713 43.256 24.5509 46.4661 17.6019C46.6932 17.1097 47.0141 16.6607 47.2913 16.1917C47.4314 16.2044 47.5714 16.2166 47.7114 16.2291ZM71.31 59.3426C70.1825 58.4697 69.2831 57.4528 68.1554 56.9805C66.6958 56.3686 65.2402 56.8789 64.1754 58.1175C62.8872 59.6152 62.9391 61.2909 63.803 62.9326C65.5402 66.2333 68.2859 68.6076 71.2384 70.9216C72.4951 69.8029 73.8152 68.8548 74.8438 67.6566C76.2696 65.9961 77.6786 64.258 78.721 62.3489C79.7896 60.3917 78.8697 58.1731 77.0117 57.2242C75.1993 56.2986 73.1215 56.9119 71.8629 58.7228C71.643 59.0392 71.3466 59.3024 71.31 59.3426Z" fill="black"/>
<path fill-rule="evenodd" clip-rule="evenodd" d="M14.6328 50.4647C14.6988 47.9579 15.3316 45.6044 16.3076 43.3233C18.8694 37.3354 23.0615 32.6145 27.8813 28.3756C28.7124 27.6446 29.4769 26.8332 30.3443 26.1505C30.6485 25.9112 31.1692 25.9465 31.5908 25.8564C31.4629 26.2414 31.4472 26.7432 31.1884 26.9924C29.4754 28.642 27.6761 30.2018 25.9691 31.8573C21.5191 36.1741 17.9173 41.0655 16.3328 47.1629C14.5948 53.8516 18.0747 60.856 24.3269 63.6479C24.7062 63.8172 24.927 64.3407 25.2217 64.6996C24.7394 64.7193 24.1823 64.9084 23.7859 64.7335C18.7208 62.5014 15.928 58.4994 14.9413 53.1463C14.7786 52.2633 14.7326 51.3589 14.6328 50.4647Z" fill="black"/>
<path fill-rule="evenodd" clip-rule="evenodd" d="M49.7583 73.068C47.0546 72.8215 44.9967 71.7061 43.6248 69.3931C43.2495 68.7605 42.8432 68.1466 42.4726 67.5115C42.0521 66.7913 42.4239 66.5589 43.1066 66.5139C44.2319 66.4398 45.3553 66.308 46.4813 66.2789C47.3672 66.2557 48.2563 66.3447 49.1435 66.3972C49.4245 66.4135 49.7511 66.5861 49.9743 66.4919C51.3903 65.8958 52.7744 66.2336 54.1884 66.486C54.8937 66.6117 55.6403 66.5237 56.3676 66.5006C57.0043 66.4804 57.4527 66.7836 57.0955 67.358C55.943 69.2119 55.088 71.3795 52.7979 72.2118C51.8113 72.5703 50.773 72.7869 49.7583 73.068ZM54.2878 69.2574C51.222 70.3437 48.1949 70.3408 45.1514 69.2165C46.2998 71.0549 48.0072 71.7428 50.0311 71.6518C51.7964 71.5727 53.3068 70.9054 54.2878 69.2574ZM53.7374 67.8853C53.7271 67.7314 53.7165 67.5772 53.7059 67.4229C51.4986 67.4229 49.291 67.4047 47.0839 67.4379C46.6182 67.4448 46.1554 67.6405 45.5454 67.7834C48.3878 69.0566 51.0613 69.0152 53.7374 67.8853Z" fill="black"/>
<path fill-rule="evenodd" clip-rule="evenodd" d="M70.5952 32.9051C62.5934 31.5476 57.0478 27.5905 54.5999 19.8791C54.3777 19.178 54.0587 18.4985 53.923 17.7826C53.8531 17.4114 54.0869 16.9827 54.1834 16.5801C54.4831 16.849 54.9194 17.0618 55.0576 17.3972C55.5538 18.6034 55.9168 19.8635 56.388 21.0809C58.7481 27.18 63.557 30.1773 69.6649 31.5143C69.9444 31.5755 70.2624 31.5646 70.4971 31.7003C70.8006 31.8756 71.0383 32.1648 71.3046 32.4048C71.0138 32.6099 70.7231 32.8148 70.5952 32.9051Z" fill="black"/>
<path fill-rule="evenodd" clip-rule="evenodd" d="M29.6191 46.7844C30.4009 45.6654 31.2832 45.3895 32.6543 45.9614C33.6704 46.3849 34.637 46.9712 35.6875 47.2583C38.0959 47.9164 40.2919 47.2043 42.365 45.873C41.9243 47.2805 39.947 48.589 38.0911 48.804C36.0666 49.0386 34.2127 48.5486 32.3952 47.69C31.5346 47.2833 30.5741 47.088 29.6191 46.7844Z" fill="black"/>
<path fill-rule="evenodd" clip-rule="evenodd" d="M68.1754 46.7627C67.1338 47.107 66.0744 47.3541 65.1064 47.7998C63.3557 48.6057 61.567 49.0436 59.642 48.7919C57.7545 48.5451 56.3224 47.5706 55.0879 45.8854C56.3161 46.3994 57.3154 46.9361 58.381 47.2386C60.5451 47.853 62.5561 47.3367 64.5007 46.2596C66.2634 45.2832 67.0289 45.4638 68.1754 46.7627Z" fill="black"/>
<path fill-rule="evenodd" clip-rule="evenodd" d="M49.6207 60.4512C48.512 59.962 47.5698 59.6079 46.7004 59.1234C46.4531 58.9855 46.4177 58.4677 46.2852 58.1241C46.6448 58.1224 47.0958 57.9789 47.3493 58.1424C48.8628 59.1182 50.2869 59.2708 51.7158 57.9827C51.8843 57.8311 52.2814 57.9329 52.5724 57.9174C52.5422 58.2425 52.6312 58.7526 52.4616 58.8617C51.5682 59.4376 50.6099 59.9126 49.6207 60.4512Z" fill="black"/>
</g>
<defs>
<clipPath id="clip0_1463_2895">
<rect width="71" height="69" fill="white" transform="translate(13 14)"/>
</clipPath>
</defs>
</svg>
