<svg width="97" height="97" viewBox="0 0 97 97" fill="none" xmlns="http://www.w3.org/2000/svg">
<circle cx="48.5" cy="48.5" r="48" fill="white" stroke="#181717"/>
<g clip-path="url(#clip0_1463_2826)">
<path fill-rule="evenodd" clip-rule="evenodd" d="M46.4206 81.2185C45.0148 80.9993 43.5976 80.8358 42.2048 80.5524C29.8607 78.0405 20.249 68.1414 18.0398 55.6944C15.1027 39.1476 25.9665 23.1914 42.3787 19.946C58.4142 16.7752 74.0988 26.4735 78.3516 42.2437C78.8252 43.9995 78.9759 45.8422 79.2808 47.6438C79.3134 47.8367 79.3754 48.0249 79.4238 48.2152C79.4238 49.5903 79.4238 50.9655 79.4238 52.3406C79.2572 53.4677 79.1504 54.6074 78.9149 55.7199C76.2438 68.343 68.6893 76.4971 56.3443 80.1669C54.4728 80.7232 52.4817 80.878 50.5459 81.2184C49.1708 81.2185 47.7957 81.2185 46.4206 81.2185ZM19.6766 50.2324C19.5409 65.9472 32.4312 78.9685 48.3345 79.0732C64.1796 79.1777 77.2677 66.38 77.2803 50.2811C77.2926 34.5259 64.592 21.5652 48.5866 21.4778C32.6932 21.3911 19.8148 34.2304 19.6766 50.2324Z" fill="black"/>
<path fill-rule="evenodd" clip-rule="evenodd" d="M48.4202 70.5519C37.166 70.4421 28.0616 61.2429 28.2068 50.1279C28.3525 38.9668 37.5209 29.8956 48.5458 30.0039C59.8 30.1146 68.9047 39.3149 68.7585 50.4286C68.6116 61.5895 59.4447 70.6596 48.4202 70.5519ZM48.4961 32.165C38.3625 32.2386 30.3535 40.2824 30.3695 50.3701C30.3851 60.2701 38.546 68.415 48.4259 68.391C58.5645 68.3663 66.6629 60.2325 66.5956 50.142C66.5293 40.213 58.3544 32.0934 48.4961 32.165Z" fill="black"/>
<path fill-rule="evenodd" clip-rule="evenodd" d="M54.865 50.2192C54.8455 53.9279 52.0353 56.6876 48.3045 56.6615C44.9231 56.6378 42.0714 53.7107 42.1018 50.2942C42.1346 46.6284 44.9271 43.8857 48.6181 43.8943C52.0123 43.9023 54.8827 46.8084 54.865 50.2192ZM52.7505 50.2279C52.7361 47.9715 50.7796 46.0204 48.5214 46.0104C46.1761 45.9999 44.199 47.982 44.2143 50.3283C44.229 52.5851 46.186 54.5361 48.4442 54.5455C50.8003 54.5555 52.7656 52.5851 52.7505 50.2279Z" fill="black"/>
<path fill-rule="evenodd" clip-rule="evenodd" d="M56.7975 44.0943C55.6092 44.1072 54.6681 43.1811 54.666 41.9969C54.6638 40.8131 55.6012 39.8526 56.7639 39.8469C57.9353 39.8413 58.898 40.7871 58.9153 41.9607C58.9326 43.1162 57.9744 44.0815 56.7975 44.0943Z" fill="black"/>
<path fill-rule="evenodd" clip-rule="evenodd" d="M42.2952 58.5494C42.3007 59.74 41.3759 60.697 40.2084 60.7085C39.0377 60.72 38.0692 59.7764 38.0472 58.6027C38.0256 57.4467 38.98 56.4802 40.159 56.4643C41.3626 56.4481 42.2896 57.353 42.2952 58.5494Z" fill="black"/>
<path fill-rule="evenodd" clip-rule="evenodd" d="M42.2993 41.9525C42.3089 43.1436 41.3896 44.0836 40.2038 44.0954C39.0209 44.1072 38.0402 43.1577 38.043 42.0036C38.0459 40.8359 38.9963 39.8637 40.1592 39.8393C41.3181 39.8149 42.2899 40.7743 42.2993 41.9525Z" fill="black"/>
<path fill-rule="evenodd" clip-rule="evenodd" d="M54.6602 58.5871C54.6587 57.4091 55.6004 56.4612 56.7774 56.4556C57.9438 56.45 58.9351 57.4273 58.9217 58.5698C58.9079 59.7407 57.961 60.6936 56.7883 60.7167C55.6393 60.7392 54.6617 59.7609 54.6602 58.5871Z" fill="black"/>
<path fill-rule="evenodd" clip-rule="evenodd" d="M50.6002 38.5389C50.5923 39.7521 49.6103 40.703 48.3973 40.6721C47.2853 40.6438 46.3668 39.68 46.3672 38.542C46.3677 37.3601 47.3238 36.3905 48.4779 36.4017C49.6466 36.413 50.6077 37.381 50.6002 38.5389Z" fill="black"/>
<path fill-rule="evenodd" clip-rule="evenodd" d="M38.873 50.2745C38.8637 51.4855 37.883 52.4255 36.661 52.3944C35.545 52.3661 34.6195 51.4132 34.6056 50.2778C34.5914 49.1249 35.5606 48.1651 36.7415 48.1626C37.9159 48.1602 38.8817 49.1172 38.873 50.2745Z" fill="black"/>
<path fill-rule="evenodd" clip-rule="evenodd" d="M60.2175 52.393C59.0432 52.3934 58.0743 51.43 58.09 50.2773C58.1059 49.0943 59.0355 48.171 60.2212 48.16C61.3744 48.1493 62.3581 49.1261 62.3581 50.2822C62.3581 51.4472 61.3993 52.3925 60.2175 52.393Z" fill="black"/>
<path fill-rule="evenodd" clip-rule="evenodd" d="M50.5871 62.0172C50.5914 63.2036 49.6419 64.1681 48.4837 64.1543C47.3146 64.1402 46.3531 63.1689 46.3654 62.0145C46.378 60.8294 47.3083 59.8957 48.485 59.887C49.649 59.8785 50.5829 60.8248 50.5871 62.0172Z" fill="black"/>
</g>
<defs>
<clipPath id="clip0_1463_2826">
<rect width="74" height="74" fill="white" transform="translate(12 11)"/>
</clipPath>
</defs>
</svg>
