<svg width="97" height="97" viewBox="0 0 97 97" fill="none" xmlns="http://www.w3.org/2000/svg">
<circle cx="48.5" cy="48.5" r="48" fill="white" stroke="#181717"/>
<path fill-rule="evenodd" clip-rule="evenodd" d="M73.5753 56.4564C73.2991 53.5215 72.6243 50.6748 71.6364 47.9065C71.1327 46.4953 70.5384 45.1169 69.9804 43.7256C69.875 43.4629 69.7606 43.2017 69.623 42.9554C69.5566 42.8364 69.4033 42.7679 69.3309 42.6507C69.245 42.5116 69.203 42.3449 69.1435 42.1896C69.0032 41.823 68.8959 41.4396 68.7193 41.0918C66.867 37.4446 64.6946 33.9956 62.3218 30.6709C58.6149 25.4772 54.4801 20.6444 50.112 16.0083C49.5976 15.4625 48.961 15.1358 48.2281 14.9956C48.1509 14.9809 48.0755 14.9575 47.9993 14.9382H47.2568C46.8637 15.0636 46.4479 15.1434 46.0842 15.3273C45.7361 15.5032 45.3999 15.7467 45.1311 16.0302C41.2333 20.1423 37.5376 24.4292 34.1558 28.984C31.5894 32.4404 29.2215 36.0238 27.1951 39.8231C27.0987 40.0041 27.0031 40.1855 26.909 40.3676C26.1823 41.879 25.4401 43.3727 24.7542 44.9098C24.6813 45.0831 24.6092 45.2568 24.538 45.4307C23.4704 48.0393 22.6072 50.716 22.107 53.505C21.8645 54.857 21.7564 56.2333 21.5868 57.5984C21.5726 57.7115 21.555 57.8243 21.5391 57.9374V60.4448C21.5905 60.9911 21.6356 61.538 21.6945 62.0835C21.9724 64.6574 22.6084 67.1414 23.7455 69.4633C27.3515 76.8279 33.189 81.4341 41.0541 83.4889C41.5953 83.6303 42.1401 83.7505 42.6879 83.8524C42.8248 83.878 42.962 83.903 43.0996 83.9281C43.4173 84.0007 43.7374 84.0609 44.0589 84.1101C44.2196 84.1345 44.3808 84.1564 44.5428 84.1773C45.2794 84.3205 46.0286 84.4011 46.7798 84.4235C46.93 84.428 47.0802 84.4302 47.2306 84.4301C49.0367 84.4513 50.8397 84.3445 52.5975 83.8566C52.7603 83.822 52.9229 83.7867 53.0852 83.7504C53.2475 83.7141 53.4096 83.6768 53.5714 83.638C53.766 83.594 53.9603 83.5489 54.1539 83.5019C57.4495 82.7084 60.5037 81.3189 63.2982 79.3118C66.5676 76.9639 69.1427 73.9986 71.0355 70.4339C71.0813 70.3477 71.1373 70.264 71.1642 70.1719C71.1829 70.1082 71.1597 70.0321 71.1558 69.9705C71.2674 69.813 71.4191 69.654 71.5076 69.4651C72.5365 67.2711 73.1941 64.9662 73.4982 62.561C73.5795 61.9182 73.6164 61.2697 73.6757 60.6239C73.6829 60.5458 73.7029 60.4689 73.7169 60.3913V58.0439C73.67 57.5148 73.6253 56.9854 73.5753 56.4564ZM71.13 58.8451C71.2005 63.459 70.0169 67.7016 67.3928 71.5076C64.9276 75.0829 61.7163 77.7649 57.7684 79.5443C56.1864 80.2573 54.5711 80.7954 52.9246 81.158C52.7416 81.1983 52.5582 81.2364 52.3746 81.2723C52.2358 81.3029 52.0969 81.3314 51.958 81.3578C51.819 81.3843 51.68 81.4087 51.541 81.4315C50.5216 81.6772 49.4611 81.6238 48.461 81.7085C48.3007 81.7121 48.142 81.7151 47.9846 81.7172C47.1974 81.728 46.4406 81.7158 45.6554 81.6429C45.5185 81.6334 45.382 81.6219 45.2463 81.6079C45.1106 81.5938 44.9758 81.5771 44.8424 81.5572C44.6386 81.5333 44.4359 81.5081 44.2338 81.4808C39.5896 80.8585 35.4042 79.0435 31.7786 75.8941C28.2415 72.8216 25.8043 69.029 24.7059 64.4202C24.0749 61.7724 23.9803 59.092 24.2723 56.3936C24.6969 52.4697 25.8611 48.7719 27.4297 45.2011C27.5123 45.0132 27.5959 44.8255 27.6807 44.6383C27.9323 44.0663 28.1974 43.5328 28.4676 42.9699C28.5569 42.7875 28.6471 42.6055 28.7382 42.4241C30.7432 38.4337 33.1585 34.6954 35.7942 31.0947C38.8523 26.9171 42.1897 22.9739 45.7001 19.1765C46.1093 18.7339 46.5177 18.2906 46.9319 17.8529C47.3577 17.403 47.8956 17.402 48.321 17.8541C53.0287 22.8562 57.4629 28.0858 61.3498 33.7675C63.949 37.5666 66.2674 41.5272 68.07 45.7779C69.3111 48.7044 70.2905 51.7142 70.7688 54.8671C70.9682 56.182 71.0618 57.513 71.2035 58.8368C71.1791 58.8396 71.1546 58.8423 71.13 58.8451Z" fill="black"/>
<path fill-rule="evenodd" clip-rule="evenodd" d="M65.7912 49.8891C64.3481 49.8668 62.906 49.7816 61.4634 49.7222C59.8186 49.6547 58.1766 49.64 56.5388 49.8681C55.3333 50.0361 54.2583 50.4589 53.4448 51.4013C52.2032 52.8398 51.9513 54.4767 52.6861 56.2075C53.1078 57.2007 53.6695 58.1382 54.2185 59.0709C54.9716 60.3503 55.6246 61.6529 55.7763 63.1659C55.9512 64.9103 55.6346 66.5215 54.6232 67.9724C54.5547 68.0707 54.5267 68.1965 54.4723 68.3059C54.4266 68.3981 54.3613 68.5654 54.3195 68.5608C54.0754 68.5343 54.0065 68.7471 53.8654 68.8558C53.3931 69.2198 52.9556 69.642 52.4475 69.9444C50.243 71.2567 47.8636 71.6083 45.3633 71.1102C43.8093 70.8007 42.4135 70.1384 41.3399 68.9405C39.5859 66.9831 39.2555 64.6757 39.8471 62.1878C40.1178 61.0497 40.7097 60.0469 41.2625 59.0284C41.8022 58.0337 42.3739 57.0459 42.7972 56.0002C43.8114 53.4948 42.3635 50.6948 39.7716 50.0397C38.8715 49.8123 37.9509 49.8284 37.0299 49.845C35.4331 49.8738 33.8359 49.8865 32.2388 49.8982C31.1745 49.9059 30.11 49.8946 29.0457 49.9026C28.5003 49.9067 28.1167 50.2135 27.9813 50.7214C27.7582 51.5588 28.2791 52.2472 29.1382 52.2478C30.5009 52.2487 31.8638 52.2481 33.2265 52.2481C33.2265 52.2348 33.2265 52.2215 33.2265 52.2082C33.9358 52.2082 34.6452 52.2091 35.3544 52.2079C36.0472 52.2068 36.742 52.1681 37.4322 52.209C38.556 52.2754 39.5213 52.7172 40.2715 53.5846C40.5954 53.9592 40.7453 54.3977 40.5743 54.8703C40.3966 55.3613 40.294 55.8896 39.9412 56.309C39.8109 56.464 39.7328 56.6626 39.6232 56.8364C38.4578 58.6856 37.5967 60.657 37.3468 62.8509C36.9402 66.4216 38.1085 69.3969 40.964 71.5476C44.4776 74.1938 48.3609 74.5841 52.3629 72.8215C56.5941 70.9579 58.6625 66.9356 57.9315 62.3454C57.6196 60.3875 56.8909 58.5912 55.8821 56.9003C55.4787 56.2242 55.1035 55.5356 54.9459 54.7511C54.7698 53.8752 55.0564 53.1768 55.8116 52.71C56.3696 52.3654 56.978 52.1489 57.6401 52.1588C58.2118 52.1673 58.7829 52.2367 59.3545 52.2395C61.5316 52.2509 63.7089 52.2496 65.8861 52.245C66.4004 52.2439 66.7876 51.9171 66.9246 51.4203C67.1088 50.7525 66.75 49.904 65.7912 49.8891Z" fill="black"/>
<path fill-rule="evenodd" clip-rule="evenodd" d="M42.7348 63.4225C42.7656 64.5464 42.9368 65.6513 43.577 66.6008C44.72 68.2958 46.3563 68.9261 48.3372 68.6446C50.1759 68.3833 51.7102 66.942 52.1615 65.1271C52.5018 63.7595 52.416 62.3797 52.1618 61.0225C51.7834 59.002 51.5088 56.9738 51.4462 54.9195C51.3645 52.2375 51.5551 49.5722 51.956 46.9196C52.4526 43.6343 53.2473 40.4225 54.3012 37.276C54.702 36.0789 55.1546 34.899 55.5947 33.7153C55.7323 33.3453 55.7359 33.0047 55.492 32.6816C55.0427 32.0864 53.8676 31.8753 53.4122 32.854C52.808 34.1526 52.1356 35.4188 51.5106 36.708C49.9258 39.9767 48.4425 43.2897 47.1255 46.6744C47.1255 46.6744 47.1247 46.6763 47.1235 46.6794C46.9772 47.0557 46.8336 47.4331 46.6913 47.8113C46.0908 49.3966 45.0693 52.1454 44.9721 52.751C44.972 52.7517 44.9719 52.7522 44.9719 52.7528C44.3564 54.7003 43.8114 56.6687 43.3515 58.6618C42.99 60.2281 42.6905 61.8043 42.7348 63.4225ZM45.1233 61.9737C45.368 59.2413 46.1181 56.6276 47.0002 54.0476C47.3485 53.0288 47.7299 52.0214 48.0898 51.0067C48.1841 50.741 48.2738 50.4737 48.3619 50.2057C48.362 50.2054 48.3623 50.2053 48.3624 50.2049C48.3763 50.1627 48.6345 49.5037 48.8342 48.9951C48.8488 48.9701 48.8596 48.9411 48.8718 48.909C49.0803 48.3664 49.2911 47.8247 49.501 47.2826C49.5152 47.2843 49.5295 47.286 49.5437 47.2877C49.4733 47.9315 49.3976 48.5749 49.3347 49.2195C49.3347 49.2195 49.0951 51.344 49.1719 51.9403C49.1692 53.3599 49.1515 54.7802 49.1998 56.1983C49.26 57.9669 49.5493 59.7114 49.8752 61.451C50.0733 62.5085 50.0778 63.5846 49.7837 64.6355C49.3507 66.183 47.776 66.8657 46.39 66.1145C45.84 65.8164 45.5284 65.3223 45.3382 64.7433C45.0411 63.8389 45.0397 62.9063 45.1233 61.9737Z" fill="black"/>
</svg>
