<svg width="348" height="293" viewBox="0 0 348 293" fill="none" xmlns="http://www.w3.org/2000/svg">
<path fill-rule="evenodd" clip-rule="evenodd" d="M171.024 21.7795C156.19 8.17463 137.16 0 116.408 0C69.0365 0 30.6338 42.603 30.6338 95.1565C30.6338 98.7406 30.8125 102.278 31.1603 105.76C12.4484 118.942 0 142.377 0 169.091C0 194.311 11.0945 216.608 28.0799 230.116C25.8482 244.577 38.2777 259.186 55.9541 262.81C69.5653 265.602 82.3379 261.073 88.639 252.263C101.437 260.747 116.379 265.617 132.338 265.617C155.12 265.617 175.828 255.693 191.187 239.501C206.018 245.689 222.888 249.187 240.782 249.187C299.997 249.187 348 210.875 348 163.614C348 130.138 323.914 101.151 288.819 87.0907C289.855 82.9026 290.408 78.4907 290.408 73.9346C290.408 46.7126 270.658 24.6449 246.296 24.6449C237.787 24.6449 229.842 27.3364 223.104 31.9989C219.578 18.2651 208.255 8.21495 194.831 8.21495C185.042 8.21495 176.37 13.5594 171.024 21.7795ZM17.1549 293C23.9223 293 29.4085 287.177 29.4085 279.993C29.4085 272.809 23.9223 266.986 17.1549 266.986C10.3875 266.986 4.90141 272.809 4.90141 279.993C4.90141 287.177 10.3875 293 17.1549 293Z" fill="#FFD763"/>
</svg>
