<svg width="345" height="293" viewBox="0 0 345 293" fill="none" xmlns="http://www.w3.org/2000/svg">
<path fill-rule="evenodd" clip-rule="evenodd" d="M183.591 0C160.822 0 139.822 7.41226 122.975 19.905C118.41 18.3815 113.526 17.5565 108.449 17.5565C83.1246 17.5565 62.5949 38.0878 62.5949 63.4147C62.5949 64.6396 62.643 65.8534 62.7373 67.0543L62.5949 67.0542C28.0247 67.0542 0 95.407 0 130.382C0 165.357 28.0247 193.71 62.5949 193.71C63.1625 193.71 63.7282 193.702 64.2923 193.687C74.6598 220.55 109.402 240.296 150.665 240.296C175.141 240.296 197.324 233.347 213.485 222.087C221.307 228.032 231.064 231.562 241.646 231.562C267.372 231.562 288.228 210.704 288.228 184.975C288.228 184.079 288.204 183.191 288.153 182.308C320.517 176.204 345 147.782 345 113.64C345 75.047 313.717 43.7611 275.127 43.7611C272.536 43.7611 269.979 43.9021 267.461 44.1767C249.491 17.5597 218.637 0 183.591 0ZM236.845 257.246C236.845 266.321 228.264 273.676 217.679 273.676C207.093 273.676 198.512 266.321 198.512 257.246C198.512 248.172 207.093 240.816 217.679 240.816C228.264 240.816 236.845 248.172 236.845 257.246ZM260.119 283.26C260.119 288.553 255.215 292.844 249.167 292.844C243.118 292.844 238.214 288.553 238.214 283.26C238.214 277.967 243.118 273.676 249.167 273.676C255.215 273.676 260.119 277.967 260.119 283.26Z" fill="#FFD763"/>
</svg>
